<svg width="114" height="33" xmlns="http://www.w3.org/2000/svg"><defs><filter x="-.6%" y="-15%" width="101.2%" height="130%" filterUnits="objectBoundingBox" id="a"><feOffset dy="2" in="SourceAlpha" result="shadowOffsetOuter1"/><feGaussianBlur stdDeviation="2" in="shadowOffsetOuter1" result="shadowBlurOuter1"/><feColorMatrix values="0 0 0 0 0 0 0 0 0 0 0 0 0 0 0 0 0 0 0.0456082004 0" in="shadowBlurOuter1" result="shadowMatrixOuter1"/><feMerge><feMergeNode in="shadowMatrixOuter1"/><feMergeNode in="SourceGraphic"/></feMerge></filter></defs><g filter="url(#a)" transform="translate(-45 -26)" fill="none" fill-rule="evenodd"><path d="M92.585 28v1.828h6.344v3.12H83.122v-2.143l-1.71 2.274v19.606h-3.12V37.227l-1.14 1.52h-4.005l8.034-10.686 4.004.002-1.328 1.765h5.61V28h3.118zm-37.634.167v2.74h2.46v3.12h-2.46v5.443l2.481-.727-.004 3.256-2.477.726v7.36a2.6 2.6 0 01-2.598 2.6h-3.329v-3.12h1.768a1.04 1.04 0 001.04-1.04V43.64L49 44.47v-3.256l2.832-.83v-6.356H49v-3.12h2.832v-2.74h3.12zm10.705-.082l3.132.925-1.404 1.898h5.31v18.657a3.12 3.12 0 01-3.119 3.12h-11.23V30.908h5.223l2.088-2.823zm33.273 14.58v6.9a3.12 3.12 0 01-3.12 3.12H83.122v-10.02H98.93zm26.116-14.473v22.411a2.08 2.08 0 01-2.08 2.08h-3.757v-3.12h1.678a1.04 1.04 0 001.04-1.04v-20.33h3.12zm-14.444.103v2.488l6.046 4.531v3.898l-1.421-1.065v9.066h-5.511v-3.12h2.391v-3.107h-4.476v7.012c0 .861.698 1.56 1.56 1.56h3.151a1.56 1.56 0 001.56-1.56v-.181h3.12v1.738a3.12 3.12 0 01-3.123 3.12l-6.27-.005a3.12 3.12 0 01-3.117-3.119V39.522l-2.649 3.426v-5.1l5.62-7.267v-2.286h3.119zm26.615 18.797v2.359c0 .574.466 1.04 1.04 1.04h7.848c.43 0 .778-.349.778-.779h-8.056v-2.62h11.176v3.433a2.08 2.08 0 01-2.08 2.08h-11.746a2.08 2.08 0 01-2.08-2.08v-3.433h3.12zm-4.232 0l-.636 4.778h-3.12l.636-4.777h3.12zm20.878 0l.628 4.778h-3.12l-.628-4.777h3.12zm-84.287-3.736h-8.11v6.21h6.55a1.56 1.56 0 001.56-1.56v-4.65zm26.234 2.429h-9.567v3.78h8.007a1.56 1.56 0 001.56-1.56v-2.22zm54.933-8.42v5.782a3.12 3.12 0 01-3.12 3.12h-14.638v-8.901h17.758zm-2.573 5.567h-12.636v.682h11.955a.682.682 0 00.681-.682zm-49.24-4.546v3.12H83.121v-3.12h15.806zm49.214 1.58h-12.637v.682h12.637v-.682zm-78.568-5.939h-8.11v6.21h8.11v-6.21zm39.54-.46l-3.318 4.291 9.053.008-5.735-4.298zm-10.187.54v3.12H83.122v-3.12h15.806zm44.495-6.046v1.32h8.746v2.689h-3.977v1.432h6.15v3.12h-24.957v-3.12h6.15V32.07h-3.978v-2.69h8.746v-1.32h3.12zm1.65 4.009h-6.42v1.432h6.42V32.07z" fill="#000"/><path fill="#F71558" d="M118 47.294h3.12V32.106H118z"/></g></svg>